<?xml version="1.0" standalone="no"?>
<!DOCTYPE svg PUBLIC "-//W3C//DTD SVG 20010904//EN"
 "http://www.w3.org/TR/2001/REC-SVG-20010904/DTD/svg10.dtd">
<svg version="1.0" xmlns="http://www.w3.org/2000/svg"
 width="542.000000pt" height="542.000000pt" viewBox="0 0 542.000000 542.000000"
 preserveAspectRatio="xMidYMid meet">
<metadata>
Created by potrace 1.11, written by Peter Selinger 2001-2013
</metadata>
<g transform="translate(0.000000,542.000000) scale(0.100000,-0.100000)"
fill="#000000" stroke="none">
<path d="M2675 5362 c-44 -26 -87 -51 -95 -55 -8 -4 -28 -16 -45 -26 -34 -21
-336 -199 -467 -275 -92 -53 -288 -168 -818 -479 -173 -101 -423 -248 -555
-325 l-240 -140 -2 -1359 -3 -1358 263 -155 c144 -85 350 -207 457 -271 107
-63 308 -182 445 -264 138 -81 282 -167 320 -190 39 -23 183 -109 320 -190
138 -81 294 -174 347 -206 54 -33 102 -59 107 -59 6 0 51 25 102 55 50 30 93
55 95 55 1 0 46 27 99 60 53 33 98 60 100 60 1 0 74 43 161 95 87 52 159 95
160 95 2 0 92 53 201 118 298 178 476 284 498 297 11 6 110 64 220 130 110 66
208 124 217 130 10 5 77 46 150 89 73 44 161 95 195 115 l63 36 -3 1358 -2
1359 -515 317 c-283 175 -587 362 -675 416 -88 54 -263 162 -390 240 -457 282
-599 368 -614 372 -9 2 -52 -18 -96 -45z m329 -1024 c127 -78 245 -152 263
-163 45 -28 99 -62 543 -335 217 -133 397 -244 399 -246 2 -2 5 -404 5 -893
l1 -890 35 -23 c19 -13 63 -41 98 -62 34 -20 62 -40 62 -42 0 -3 -3 -3 -7 -1
-5 3 -51 31 -103 62 -52 32 -99 58 -105 58 -8 0 -359 -204 -435 -253 -25 -16
-124 -75 -135 -80 -6 -3 -49 -28 -95 -56 -47 -28 -218 -130 -380 -227 -162
-96 -311 -184 -330 -196 -19 -11 -52 -30 -72 -41 l-38 -20 -41 22 c-56 31 -1
-2 -753 446 l-670 397 0 885 c-1 487 0 892 2 900 2 9 112 80 245 157 413 242
621 363 947 556 173 102 319 186 324 186 4 1 112 -63 240 -141z m1481 -2698
c3 -5 -10 -1 -29 11 -20 12 -36 23 -36 25 0 7 58 -25 65 -36z"/>
<path d="M2537 3742 c-168 -104 -608 -370 -720 -437 l-67 -40 2 -584 3 -585
235 -143 c129 -78 344 -208 478 -289 l243 -146 207 125 c114 69 329 199 477
289 l270 164 2 584 3 585 -116 70 c-64 39 -128 77 -142 85 -15 8 -83 50 -152
92 -356 218 -543 328 -553 327 -7 0 -83 -44 -170 -97z"/>
</g>
</svg>
